<?xml version="1.0" encoding="UTF-8"?>
<svg width="453px" height="98px" viewBox="0 0 453 98" version="1.1" xmlns="http://www.w3.org/2000/svg" xmlns:xlink="http://www.w3.org/1999/xlink">
    <!-- Generator: Sketch 54.1 (76490) - https://sketchapp.com -->
    <title>logo/totemaster/white</title>
    <desc>Created with Sketch.</desc>
    <defs>
        <polygon id="path-1" points="0.1676 0.365 96.7586 0.365 96.7586 96.9997 0.1676 96.9997"></polygon>
        <polygon id="path-3" points="0.0001 0.365 96.5921 0.365 96.5921 96.9997 0.0001 96.9997"></polygon>
    </defs>
    <g id="logo/totemaster/white" stroke="none" stroke-width="1" fill="none" fill-rule="evenodd">
        <g id="Group-11">
            <path d="M167.2037,79.1452 C150.7647,79.1452 137.3907,65.7642 137.3907,49.3182 C137.3907,32.8722 150.7647,19.4912 167.2037,19.4912 C183.6417,19.4912 197.0157,32.8722 197.0157,49.3182 C197.0157,65.7642 183.6417,79.1452 167.2037,79.1452 M167.2037,1.0852 C140.6207,1.0852 118.9927,22.7232 118.9927,49.3182 C118.9927,75.9142 140.6207,97.5512 167.2037,97.5512 C193.7867,97.5512 215.4147,75.9142 215.4147,49.3182 C215.4147,22.7232 193.7867,1.0852 167.2037,1.0852" id="Fill-1" fill="#FFFFFF"></path>
            <g id="Group-5" transform="translate(237.000000, 0.635500)">
                <mask id="mask-2" fill="white">
                    <use xlink:href="#path-1"></use>
                </mask>
                <g id="Clip-4"></g>
                <path d="M55.3536,0.3647 L41.5736,0.3647 C40.2976,0.3647 39.2646,1.3987 39.2646,2.6747 L39.2646,39.4787 L2.4776,39.4787 C1.2016,39.4787 0.1676,40.5127 0.1676,41.7887 L0.1676,55.5747 C0.1676,56.8507 1.2016,57.8857 2.4776,57.8857 L39.2646,57.8857 L39.2646,94.6897 C39.2646,95.9657 40.2976,96.9997 41.5736,96.9997 L55.3536,96.9997 C56.6286,96.9997 57.6626,95.9657 57.6626,94.6897 L57.6626,57.8857 L94.4496,57.8857 C95.7256,57.8857 96.7586,56.8507 96.7586,55.5747 L96.7586,41.7887 C96.7586,40.5127 95.7256,39.4787 94.4496,39.4787 L57.6626,39.4787 L57.6626,2.6747 C57.6626,1.3987 56.6286,0.3647 55.3536,0.3647" id="Fill-3" fill="#FFFFFF" mask="url(#mask-2)"></path>
            </g>
            <g id="Group-8" transform="translate(0.000000, 0.635500)">
                <mask id="mask-4" fill="white">
                    <use xlink:href="#path-3"></use>
                </mask>
                <g id="Clip-7"></g>
                <path d="M55.1861,0.3647 L41.4061,0.3647 C40.1311,0.3647 39.0971,1.3987 39.0971,2.6747 L39.0971,39.4787 L2.3101,39.4787 C1.0341,39.4787 0.0001,40.5127 0.0001,41.7887 L0.0001,55.5747 C0.0001,56.8507 1.0341,57.8857 2.3101,57.8857 L39.0971,57.8857 L39.0971,94.6897 C39.0971,95.9657 40.1311,96.9997 41.4061,96.9997 L55.1861,96.9997 C56.4611,96.9997 57.4951,95.9657 57.4951,94.6897 L57.4951,57.8857 L94.2831,57.8857 C95.5581,57.8857 96.5921,56.8507 96.5921,55.5747 L96.5921,41.7887 C96.5921,40.5127 95.5581,39.4787 94.2831,39.4787 L57.4951,39.4787 L57.4951,2.6747 C57.4951,1.3987 56.4611,0.3647 55.1861,0.3647" id="Fill-6" fill="#FFFFFF" mask="url(#mask-4)"></path>
            </g>
            <path d="M404.048,19.5754 C417.277,19.5754 428.52,28.2434 432.404,40.1994 L375.689,40.1994 C379.574,28.2434 390.817,19.5754 404.048,19.5754 L404.048,19.5754 Z M452.265,49.4004 L452.257,49.3734 C452.242,22.6614 430.411,0.9574 403.659,1.1694 C377.439,1.3774 356.036,22.7964 355.837,49.0284 C355.634,75.7954 377.339,97.6354 404.048,97.6354 C406.071,97.6354 408.068,97.5084 410.027,97.2634 C412.512,96.9554 414.939,96.4574 417.292,95.7834 C419.28,95.2134 421.216,94.5194 423.09,93.7094 C424.478,93.1094 425.066,91.4564 424.39,90.1054 L418.514,78.3464 C417.902,77.1234 416.453,76.5544 415.188,77.0674 C414.228,77.4564 413.243,77.7964 412.238,78.0834 C410.782,78.5004 409.282,78.8084 407.745,78.9994 C406.532,79.1494 405.299,79.2284 404.048,79.2284 C390.817,79.2284 379.575,70.5614 375.689,58.6054 L449.624,58.6054 C451.083,58.6054 452.265,57.4204 452.265,55.9604 L452.265,49.4004 Z" id="Fill-9" fill="#FFFFFF"></path>
        </g>
    </g>
</svg>